<svg xmlns="http://www.w3.org/2000/svg" viewBox="0 0 48 48"><defs><style>.cls-1{fill:#201602;}</style></defs><title>Asset 6ldpi</title><g id="Layer_2" data-name="Layer 2"><g id="layer_1-2" data-name="layer 1"><path class="cls-1" d="M35,48H13A13,13,0,0,1,0,35V13A13,13,0,0,1,13,0H35A13,13,0,0,1,48,13V35A13,13,0,0,1,35,48ZM13,2A11,11,0,0,0,2,13V35A11,11,0,0,0,13,46H35A11,11,0,0,0,46,35V13A11,11,0,0,0,35,2Z"/><path class="cls-1" d="M27,28H21a1,1,0,0,1-1-.86l-3-21a1,1,0,0,1,.23-.8A1,1,0,0,1,18,5H30a1,1,0,0,1,.76.34,1,1,0,0,1,.23.8l-3,21A1,1,0,0,1,27,28Zm-5.13-2h4.26L28.85,7h-9.7Z"/><path class="cls-1" d="M24,43a6,6,0,1,1,6-6A6,6,0,0,1,24,43Zm0-10a4,4,0,1,0,4,4A4,4,0,0,0,24,33Z"/></g></g></svg>