<svg id="Layer_1" data-name="Layer 1" xmlns="http://www.w3.org/2000/svg" viewBox="0 0 128 128"><title>LOCK</title><path d="M110.242,30.142a1.748,1.748,0,0,0-1.232-1.487,403.606,403.606,0,0,1-44.289-16.1,1.752,1.752,0,0,0-1.442,0,403.606,403.606,0,0,1-44.289,16.1,1.748,1.748,0,0,0-1.232,1.487A113.456,113.456,0,0,0,20.67,66.084c6.257,25.128,21.05,42.221,42.779,49.431a1.75,1.75,0,0,0,1.1,0c21.729-7.21,36.522-24.3,42.779-49.431A113.456,113.456,0,0,0,110.242,30.142Zm-6.309,35.1C97.949,89.271,84.515,105,64,112.007c-20.487-6.994-33.912-22.694-39.909-46.672a113.51,113.51,0,0,1-2.949-33.676A416.349,416.349,0,0,0,64,16.061a416.188,416.188,0,0,0,42.858,15.6A113.25,113.25,0,0,1,103.933,65.238Z"/><path d="M101.339,34.655c-17.394-5.5-30.432-10.756-36.655-13.4a1.747,1.747,0,0,0-1.368,0c-6.223,2.641-19.261,7.9-36.655,13.4a1.752,1.752,0,0,0-1.222,1.632,107.971,107.971,0,0,0,3.1,28.292c5.43,21.36,17.149,35.631,34.832,42.415a1.753,1.753,0,0,0,1.254,0c17.683-6.784,29.4-21.055,34.832-42.414a107.986,107.986,0,0,0,3.1-28.293A1.752,1.752,0,0,0,101.339,34.655ZM96.066,63.718C91,83.655,80.211,97.03,64,103.481,47.789,97.03,37,83.655,31.934,63.717A105.7,105.7,0,0,1,28.92,37.61C45.245,32.4,57.633,27.451,64,24.77c6.367,2.681,18.755,7.627,35.08,12.84A105.72,105.72,0,0,1,96.066,63.718Z"/><path d="M76.515,51.153V46.6a12.515,12.515,0,1,0-25.03,0v4.555a8.29,8.29,0,0,0-6.3,8.034V76.74a8.291,8.291,0,0,0,8.282,8.282H74.537a8.291,8.291,0,0,0,8.282-8.282V59.187A8.29,8.29,0,0,0,76.515,51.153ZM64,37.583A9.025,9.025,0,0,1,73.015,46.6V50.9H54.985V46.6A9.025,9.025,0,0,1,64,37.583ZM79.319,76.74a4.788,4.788,0,0,1-4.782,4.782H53.463a4.788,4.788,0,0,1-4.782-4.782V59.187A4.789,4.789,0,0,1,53.463,54.4H74.537a4.789,4.789,0,0,1,4.782,4.783Z"/><path d="M68.129,60.861a6.191,6.191,0,0,0-10.293,4.026,6.144,6.144,0,0,0,2.079,5.237.464.464,0,0,1,.174.307v3.008a3.911,3.911,0,1,0,7.822,0v-2.98a.512.512,0,0,1,.184-.346,6.188,6.188,0,0,0,.034-9.252ZM65.778,67.49a3.982,3.982,0,0,0-1.367,2.969v2.98a.411.411,0,1,1-.822,0V70.431a3.926,3.926,0,0,0-1.364-2.937,2.675,2.675,0,0,1-.9-2.283,2.715,2.715,0,0,1,2.364-2.41A2.768,2.768,0,0,1,64,62.783a2.662,2.662,0,0,1,1.794.686,2.688,2.688,0,0,1-.016,4.021Z"/></svg>